<svg xmlns="http://www.w3.org/2000/svg" viewBox="0 0 128 128" role="img" aria-label="BMS Logo">
  <defs>
    <linearGradient id="bg" x1="12%" y1="0" x2="88%" y2="100%">
      <stop offset="0%" stop-color="#f97316" />
      <stop offset="50%" stop-color="#fb923c" />
      <stop offset="100%" stop-color="#ea580c" />
    </linearGradient>
  </defs>

  <rect width="128" height="128" rx="28" fill="#0f1729" />
  <circle cx="64" cy="64" r="48" fill="url(#bg)" />

  <g fill="#0f1729">
    <path d="M36 44h18c8.4 0 14 4.9 14 12.4 0 5.9-3.4 9.9-8.6 11.3v.2c6.7 1 11 5.5 11 12.6 0 8.9-6.4 14.5-16.4 14.5H36V44Zm16.5 19.2c3.7 0 5.8-2 5.8-5.2 0-3.3-2.2-5.1-5.8-5.1H46.8v10.3h5.7Zm.7 20.6c3.9 0 6.2-2.2 6.2-5.7 0-3.7-2.5-5.7-6.6-5.7h-6v11.4h6.4Z"/>
    <path d="M68.5 44h9l7.5 17.6h.2L92.7 44h8.9v50h-9.1V68.6h-.2L85.3 87h-1.9L75.3 69h-.2V94h-6.6V44Z"/>
    <path d="M112 44h7.7l-1.3 7.8c3.2-5.5 7.7-8.5 13.5-8.5 1 0 2 .1 2.9.3l-1.3 8.6c-1.2-.2-2.4-.3-3.8-.3-3.7 0-7 1.5-9.7 4.2V94H112V44Z"/>
  </g>
</svg>
